<svg id="fd351bd5-a8a5-4a0b-8c92-58875539818f" data-name="Layer 1" xmlns="http://www.w3.org/2000/svg" viewBox="0 0 1060.3 187.2"><defs><style>.a276fd18-dc2c-4290-b519-0672df2d0783{fill:#261d56;}.fb0b9771-f7b6-4832-b055-fc41958d53a8{fill:#ff785b;}.eb787eff-122d-4187-9187-a2bbf0ad9468{fill:#f9573d;}</style></defs><title>Artboard 1</title><g id="b84d865b-9596-458e-a244-68769d7107b0" data-name="bd94337e-94c5-408e-8449-a6aa8fc49189"><g id="f4d8d478-7beb-4c00-a9c0-d6f45ace1564" data-name="f91eb341-d705-4baf-878d-6b861ee1d4fc"><path class="a276fd18-dc2c-4290-b519-0672df2d0783" d="M265.1,51.9h19.3l-3.3,19.2H261.8l-12.7,72H225.4l12.7-72H221.5l3.4-19.2h16.6l6.2-34.7h23.6Z"/><path class="a276fd18-dc2c-4290-b519-0672df2d0783" d="M362.3,51.9h23.8l-16,91.2H346.3l2.2-12.9a35.5,35.5,0,0,1-28,14.9c-21.6,0-33.5-13.5-28.9-39.3l9.6-53.9h24l-8.8,49.6c-2.5,14.9,5.5,20.3,13.9,20.3s20.9-5.4,23.4-21.3Z"/><path class="a276fd18-dc2c-4290-b519-0672df2d0783" d="M420.9,143.1H397.1l16-91.2h23.8L433,73.4C440.6,56.8,452.7,50,463.1,50c6.4,0,10.9,1.1,14.2,3.3l-7.8,21.5c-5.2-2.6-10.9-2.6-13.3-2.6-16.4,0-25.5,14.3-29.6,38.7Z"/><path class="a276fd18-dc2c-4290-b519-0672df2d0783" d="M477.3,143.1,502.1,2.3H526L515,64c6.9-9.2,18.8-14,31.1-14,24,0,41.4,18.5,36.1,47.6s-29.1,47.5-53.1,47.5c-11.9,0-22.7-5.1-26-14.3l-1.9,12.3Zm52-20.9c13.1,0,25.8-9.9,28.3-25s-6.3-24.6-19.5-24.6a28.8,28.8,0,0,0-28.7,24.6C506.9,112.8,516.6,122.2,529.3,122.2Z"/><path class="a276fd18-dc2c-4290-b519-0672df2d0783" d="M597.8,97.2A56.9,56.9,0,0,1,653.7,50c25.7,0,44.3,18.3,39,47.2s-29.7,47.7-55.6,47.7S592.6,125.9,597.8,97.2Zm71.3,0c2.5-14.6-6.6-23.8-19.7-23.8a28.5,28.5,0,0,0-28,23.8c-2.5,14.9,6.7,24.4,19.8,24.4S666.6,112.1,669.1,97.2Z"/><path class="a276fd18-dc2c-4290-b519-0672df2d0783" d="M733,105c-22.6-6.2-22.4-17.3-20.9-27.9C714.9,62.3,732.2,50,750.4,50s33.2,7.8,30.7,28.7H758.4c.6-6.9-5.3-9.4-10.7-9.4s-11.7,2.1-13.1,9c-.8,3.7,2.9,6.2,8.2,7.6l14.6,3.7c20.1,5.7,20.5,19.9,19,27.3-3.1,18.8-23.8,28.2-42.4,28.2s-34.4-11.2-31.2-30.7H725c-.6,6.5,5.9,12.1,14.7,11.5,6.8-.2,12.7-3.9,13.4-9.2s-1.7-7-8.2-8.5Z"/><path class="a276fd18-dc2c-4290-b519-0672df2d0783" d="M863.9,131.4c-7.3,9.4-21.5,13.5-30.3,13.5-24,0-43.6-18.4-38.3-47.5S826.2,50,850.2,50c8.2,0,20.9,3.1,25.8,13.2l2.1-11.3h23.8l-16,91.2H862.1ZM840.8,122c12.9,0,26.8-9,29.3-24.6s-8.2-24.6-20.7-24.6a30.6,30.6,0,0,0-29.5,24.6C817.2,112.3,827.5,122,840.8,122Z"/><path class="a276fd18-dc2c-4290-b519-0672df2d0783" d="M937.7,2.3h23.8L936.7,143.1H912.9Z"/><path class="a276fd18-dc2c-4290-b519-0672df2d0783" d="M1057.6,105.4H988.1c-.8,12.3,8.2,19.6,21.6,19.6,9.2,0,19.6-4,25-11.8,5.3,3.2,11,6.7,16.4,9.8-10.9,15.6-29.7,22.1-46.5,22.1-25.9,0-44.1-19.4-38.8-47.9S995.5,50,1021.4,50s43.2,18.3,37.9,47.2C1058.7,99.6,1058.2,103.3,1057.6,105.4Zm-20-16.2c.6-12.5-7.8-19.3-19.5-19.3s-23.2,6.8-27.3,19.3Z"/><path class="fb0b9771-f7b6-4832-b055-fc41958d53a8" d="M86,187.2s-16.4-34.9-1.2-85.1C32.6,114.5,0,101.2,0,101.2L89.5,11.6,179.1,8l-3.6,89.6Z"/><path class="fb0b9771-f7b6-4832-b055-fc41958d53a8" d="M94.2,178.9s-16.3-34.9-1.1-85c-52.2,12.4-84.8-1-84.8-1L97.8,3.4,181.6,0a5.5,5.5,0,0,1,5.6,5.4v.2l-3.4,83.7Z"/><path class="a276fd18-dc2c-4290-b519-0672df2d0783" d="M124.2,86.5l7.4-7.4c16.6-16.5,19.4-33.8,19.8-40.2a2.3,2.3,0,0,0-.7-1.9,2.7,2.7,0,0,0-1.9-.8c-6.5.4-23.9,3-40.5,19.6l-7.4,7.4-2.3-.5a13.8,13.8,0,0,0-12.4,3.6l-8.8,8.9a2.1,2.1,0,0,0-.5,2,1.9,1.9,0,0,0,1.6,1.5L86,80.3a10.4,10.4,0,0,1,5.7,3.1l3.4,3.3L90.8,91a2.1,2.1,0,0,0,0,2.9l2.7,2.7a2,2,0,0,0,2.8.2h.1l4.3-4.3,3.4,3.4a11.9,11.9,0,0,1,3.1,5.6l1.6,7.6a1.9,1.9,0,0,0,1.4,1.5,2,2,0,0,0,2.1-.4l8.8-8.9a13.6,13.6,0,0,0,3.6-12.3Zm0-23.2a7,7,0,1,1,9.7-10h.1a7,7,0,0,1-8.8,10.9A4.7,4.7,0,0,1,124.2,63.3Z"/><path class="eb787eff-122d-4187-9187-a2bbf0ad9468" d="M97.7,175.4,86.2,187S70,147.9,84.8,102.1C33.8,115,.2,101,.2,101L11.8,89.4s27.2,18.8,73,12.7C76,145.9,97.7,175.4,97.7,175.4Z"/><ellipse class="a276fd18-dc2c-4290-b519-0672df2d0783" cx="167.1" cy="19.8" rx="6.7" ry="6.9" transform="translate(35 124) rotate(-45)"/></g></g></svg>
