<svg xmlns="http://www.w3.org/2000/svg" viewBox="0 0 500 500"><defs><style>.cls-1,.cls-11,.cls-14,.cls-5,.cls-9{fill:#ff785b;}.cls-13,.cls-16,.cls-18,.cls-2,.cls-4{fill:#fff;}.cls-2{opacity:0.7;}.cls-3{opacity:0.2;}.cls-10,.cls-11,.cls-12,.cls-13,.cls-14,.cls-15,.cls-16,.cls-17,.cls-4,.cls-5,.cls-6,.cls-7,.cls-9{stroke:#261d56;}.cls-11,.cls-12,.cls-13,.cls-19,.cls-4,.cls-5,.cls-6,.cls-7{stroke-linecap:round;stroke-linejoin:round;}.cls-10,.cls-12,.cls-15,.cls-6,.cls-8{fill:#261d56;}.cls-17,.cls-19,.cls-7{fill:none;}.cls-10,.cls-14,.cls-15,.cls-16,.cls-17,.cls-9{stroke-miterlimit:10;}.cls-10,.cls-17,.cls-9{stroke-width:0.5px;}.cls-11,.cls-12,.cls-13{stroke-width:0.75px;}.cls-18{opacity:0.5;}.cls-19{stroke:#fff;}</style></defs><title>DataReport</title><g id="Background_Simple" data-name="Background Simple"><path class="cls-1" d="M358.82,83C311.06,48.7,229.53,39.83,187,54.17,110.3,80.05,98,130.34,98.83,175.3s58.46,83.57,73.8,122.87,43.47,92.13,97.8,75.95,52-74.68,68.46-114.18,59.51-80,57.17-116.26C394.43,118.36,379.92,98.21,358.82,83Z"/><path class="cls-2" d="M358.82,83C311.06,48.7,229.53,39.83,187,54.17,110.3,80.05,98,130.34,98.83,175.3s58.46,83.57,73.8,122.87,43.47,92.13,97.8,75.95,52-74.68,68.46-114.18,59.51-80,57.17-116.26C394.43,118.36,379.92,98.21,358.82,83Z"/></g><g id="Charts"><rect class="cls-3" x="66.9" y="122.22" width="148.47" height="111.9" rx="8.55"/><rect class="cls-4" x="63.22" y="116.34" width="148.47" height="111.9" rx="8.55"/><path class="cls-5" d="M111.24,167.49,79.48,177.81a33.4,33.4,0,0,1,21.44-42.08,31.74,31.74,0,0,1,10.32-1.63Z"/><path class="cls-4" d="M111.24,167.49l19.63,27a33.4,33.4,0,0,1-46.65-7.39,31.62,31.62,0,0,1-4.74-9.31Z"/><path class="cls-6" d="M111.24,167.49,143,157.17a32.89,32.89,0,0,1-12.13,37.34Z"/><path class="cls-4" d="M111.24,167.49V134.1A32.87,32.87,0,0,1,143,157.17Z"/><circle class="cls-4" cx="111.27" cy="167.49" r="20.82"/><rect class="cls-5" x="154.03" y="132.07" width="45.75" height="3.79"/><rect class="cls-6" x="154.03" y="140.18" width="35.91" height="3.79"/><rect class="cls-4" x="154.03" y="148.29" width="26.39" height="3.79"/><rect class="cls-5" x="154.03" y="156.41" width="37.5" height="3.79"/><rect class="cls-6" x="154.03" y="164.52" width="17.82" height="3.79"/><rect class="cls-4" x="154.03" y="172.63" width="45.75" height="3.79"/><rect class="cls-5" x="154.03" y="180.74" width="33.69" height="3.79"/><rect class="cls-6" x="154.03" y="188.85" width="29.44" height="3.79"/><rect class="cls-4" x="154.03" y="196.96" width="45.75" height="3.79"/><line class="cls-7" x1="94.24" y1="208.01" x2="129.71" y2="208.01"/><line class="cls-7" x1="89.22" y1="213.01" x2="134.72" y2="213.01"/><line class="cls-7" x1="155.24" y1="208.01" x2="190.71" y2="208.01"/><line class="cls-7" x1="150.22" y1="213.01" x2="195.72" y2="213.01"/><rect class="cls-3" x="107.96" y="275.28" width="129.92" height="97.92" rx="8.55"/><rect class="cls-4" x="103.54" y="270.14" width="129.92" height="97.92" rx="8.55"/><line class="cls-7" x1="112.44" y1="316.69" x2="129.77" y2="316.69"/><line class="cls-7" x1="112.44" y1="320.61" x2="139.85" y2="320.61"/><line class="cls-7" x1="112.44" y1="324.52" x2="129.77" y2="324.52"/><line class="cls-7" x1="112.44" y1="328.43" x2="137.44" y2="328.43"/><line class="cls-7" x1="112.44" y1="332.35" x2="129.77" y2="332.35"/><line class="cls-7" x1="112.44" y1="336.26" x2="143.06" y2="336.26"/><line class="cls-7" x1="155.84" y1="316.69" x2="173.17" y2="316.69"/><line class="cls-7" x1="155.84" y1="320.61" x2="183.25" y2="320.61"/><line class="cls-7" x1="155.84" y1="324.52" x2="173.17" y2="324.52"/><line class="cls-7" x1="155.84" y1="328.43" x2="180.84" y2="328.43"/><line class="cls-7" x1="155.84" y1="332.35" x2="173.17" y2="332.35"/><line class="cls-7" x1="155.84" y1="336.26" x2="186.46" y2="336.26"/><line class="cls-7" x1="199.24" y1="316.69" x2="216.57" y2="316.69"/><line class="cls-7" x1="199.24" y1="320.61" x2="226.64" y2="320.61"/><line class="cls-7" x1="199.24" y1="324.52" x2="216.57" y2="324.52"/><line class="cls-7" x1="199.24" y1="328.43" x2="224.23" y2="328.43"/><line class="cls-7" x1="199.24" y1="332.35" x2="216.57" y2="332.35"/><line class="cls-7" x1="199.24" y1="336.26" x2="229.86" y2="336.26"/><rect class="cls-8" x="111.33" y="303.83" width="33.54" height="6.71"/><rect class="cls-8" x="155.49" y="303.83" width="33.54" height="6.71"/><rect class="cls-8" x="199.65" y="303.83" width="33.54" height="6.71"/><line class="cls-7" x1="150.1" y1="303.44" x2="150.1" y2="337.39"/><line class="cls-7" x1="193.9" y1="303.44" x2="193.9" y2="337.39"/><path class="cls-9" d="M125,287.93l7.26-2.36a7.63,7.63,0,1,1-9.62-4.9,7.28,7.28,0,0,1,2.36-.37Z"/><path class="cls-10" d="M125,287.93V280.3a7.51,7.51,0,0,1,7.26,5.27Z"/><path class="cls-9" d="M198.5,287.93l7.26-2.36a7.63,7.63,0,1,1-9.61-4.9,7.22,7.22,0,0,1,2.35-.37Z"/><path class="cls-10" d="M198.5,287.93V280.3a7.5,7.5,0,0,1,7.26,5.27Z"/><path class="cls-9" d="M149.52,287.93v7.63a7.63,7.63,0,1,1,0-15.26h0Z"/><path class="cls-10" d="M149.52,287.93V280.3a7.63,7.63,0,1,1,0,15.26h0Z"/><path class="cls-9" d="M174,287.93l7.26,2.36a7.63,7.63,0,1,1-14.52-4.72A7.51,7.51,0,0,1,174,280.3Z"/><path class="cls-10" d="M174,287.93V280.3a7.63,7.63,0,0,1,7.64,7.63,7.29,7.29,0,0,1-.38,2.36Z"/><path class="cls-9" d="M223,287.93l7.26,2.36a7.63,7.63,0,1,1-14.52-4.72A7.51,7.51,0,0,1,223,280.3Z"/><path class="cls-10" d="M223,287.93V280.3a7.62,7.62,0,0,1,7.63,7.63,7.28,7.28,0,0,1-.37,2.36Z"/><rect class="cls-11" x="217.82" y="357.2" width="6.68" height="2.26"/><rect class="cls-12" x="210.4" y="345.91" width="6.68" height="13.55"/><rect class="cls-13" x="202.99" y="350.78" width="6.68" height="8.69"/><rect class="cls-11" x="195.57" y="344" width="6.68" height="15.46"/><rect class="cls-12" x="188.15" y="355.47" width="6.68" height="4"/><rect class="cls-13" x="180.73" y="354.25" width="6.68" height="5.21"/><rect class="cls-11" x="173.31" y="349.04" width="6.68" height="10.43"/><rect class="cls-12" x="165.89" y="357.73" width="6.68" height="1.74"/><rect class="cls-13" x="158.47" y="345.91" width="6.68" height="13.55"/><rect class="cls-11" x="151.05" y="348.52" width="6.68" height="10.95"/><rect class="cls-12" x="143.64" y="358.94" width="6.68" height="0.52"/><rect class="cls-13" x="136.22" y="358.77" width="6.68" height="0.69"/><rect class="cls-11" x="128.8" y="350.78" width="6.68" height="8.69"/><rect class="cls-12" x="121.38" y="357.73" width="6.68" height="1.74"/><rect class="cls-13" x="113.96" y="355.99" width="6.68" height="3.48"/><rect class="cls-3" x="265.03" y="190.5" width="148.47" height="111.9" rx="8.55"/><rect class="cls-4" x="259.88" y="184.62" width="148.47" height="111.9" rx="8.55"/><rect class="cls-11" x="391.3" y="272.17" width="7.7" height="8.54"/><rect class="cls-12" x="382.74" y="229.47" width="7.7" height="51.23"/><rect class="cls-13" x="374.18" y="247.87" width="7.7" height="32.84"/><rect class="cls-11" x="365.63" y="222.25" width="7.7" height="58.46"/><rect class="cls-12" x="357.07" y="265.6" width="7.7" height="15.11"/><rect class="cls-13" x="348.51" y="261" width="7.7" height="19.7"/><rect class="cls-11" x="339.96" y="241.3" width="7.7" height="39.41"/><rect class="cls-12" x="331.4" y="274.14" width="7.7" height="6.57"/><rect class="cls-13" x="322.84" y="229.47" width="7.7" height="51.23"/><rect class="cls-11" x="314.29" y="239.33" width="7.7" height="41.38"/><rect class="cls-12" x="305.73" y="278.73" width="7.7" height="1.97"/><rect class="cls-13" x="297.17" y="278.08" width="7.7" height="2.63"/><rect class="cls-11" x="288.61" y="247.87" width="7.7" height="32.84"/><rect class="cls-12" x="280.06" y="274.14" width="7.7" height="6.57"/><rect class="cls-13" x="271.5" y="267.57" width="7.7" height="13.14"/><rect class="cls-14" x="272.5" y="208" width="127" height="6.5"/><rect class="cls-15" x="305.96" y="208.47" width="20.6" height="5.55"/><rect class="cls-16" x="327.39" y="208.47" width="38.69" height="5.55"/><rect class="cls-3" x="277.16" y="69.61" width="120.14" height="90.55" rx="8.55"/><rect class="cls-4" x="272.74" y="63.73" width="120.14" height="90.55" rx="8.55"/><line class="cls-17" x1="278.32" y1="145.8" x2="391.12" y2="145.8"/><line class="cls-17" x1="278.32" y1="145.8" x2="278.32" y2="147.47"/><line class="cls-17" x1="285.84" y1="145.8" x2="285.84" y2="147.47"/><line class="cls-17" x1="293.36" y1="145.8" x2="293.36" y2="147.47"/><line class="cls-17" x1="300.88" y1="145.8" x2="300.88" y2="147.47"/><line class="cls-17" x1="308.4" y1="145.8" x2="308.4" y2="147.47"/><line class="cls-17" x1="315.92" y1="145.8" x2="315.92" y2="147.47"/><line class="cls-17" x1="323.44" y1="145.8" x2="323.44" y2="147.47"/><line class="cls-17" x1="330.96" y1="145.8" x2="330.96" y2="147.47"/><line class="cls-17" x1="338.48" y1="145.8" x2="338.48" y2="147.47"/><line class="cls-17" x1="346" y1="145.8" x2="346" y2="147.47"/><line class="cls-17" x1="353.52" y1="145.8" x2="353.52" y2="147.47"/><line class="cls-17" x1="361.04" y1="145.8" x2="361.04" y2="147.47"/><line class="cls-17" x1="368.56" y1="145.8" x2="368.56" y2="147.47"/><line class="cls-17" x1="376.08" y1="145.8" x2="376.08" y2="147.47"/><line class="cls-17" x1="383.6" y1="145.8" x2="383.6" y2="147.47"/><line class="cls-17" x1="391.12" y1="145.8" x2="391.12" y2="147.47"/><path class="cls-1" d="M282.08,144.44H387.36V129.89l-7.45-14.4a1.19,1.19,0,0,1-.1-.32l-6.62-42.71a.8.8,0,0,0-1.6,0l-6.74,52.14a1,1,0,0,1-.35.64l-6.49,5a.76.76,0,0,1-1.16-.33l-6.54-13.49a.75.75,0,0,0-1.31-.17L342.24,125l-7.52,9.7L327.2,125l-6.63-8.55a.76.76,0,0,0-1.36.3l-7,21.83-7.52-38.91-7.52,42.79-7.52-5.82-6-16.9c-.34-1-1.56-.68-1.56.36Z"/><path class="cls-8" d="M387.36,144.47H282.08V132l7.44-12.38a.73.73,0,0,0,.1-.28l6.62-36.73a.82.82,0,0,1,1.61,0l6.73,44.84a.86.86,0,0,0,.36.55l6.49,4.32a.81.81,0,0,0,1.16-.28l6.53-11.6a.81.81,0,0,1,1.31-.14l6.77,7.5,7.52,8.34,7.52-8.34,6.62-7.35a.82.82,0,0,1,1.37.26l7,18.77h7.52l7.52,3.34,7.52-5,6-14.53a.81.81,0,0,1,1.57.31Z"/><line class="cls-7" x1="339.09" y1="75.8" x2="362.39" y2="75.8"/><line class="cls-7" x1="339.09" y1="81.26" x2="362.39" y2="81.26"/><line class="cls-7" x1="339.09" y1="86.71" x2="362.39" y2="86.71"/><line class="cls-7" x1="339.09" y1="92.17" x2="362.39" y2="92.17"/><line class="cls-7" x1="339.09" y1="97.62" x2="362.39" y2="97.62"/><line class="cls-7" x1="339.09" y1="103.08" x2="362.39" y2="103.08"/><line class="cls-7" x1="333.79" y1="75.8" x2="336.71" y2="75.8"/><line class="cls-7" x1="333.79" y1="81.26" x2="336.71" y2="81.26"/><line class="cls-7" x1="333.79" y1="86.71" x2="336.71" y2="86.71"/><line class="cls-7" x1="333.79" y1="92.17" x2="336.71" y2="92.17"/><line class="cls-7" x1="333.79" y1="97.62" x2="336.71" y2="97.62"/><line class="cls-7" x1="333.79" y1="103.08" x2="336.71" y2="103.08"/></g><g id="Shadow"><ellipse class="cls-1" cx="247.5" cy="418.5" rx="59.44" ry="29.5"/><ellipse class="cls-18" cx="247.5" cy="418.5" rx="59.44" ry="29.5"/></g><g id="Character"><path class="cls-4" d="M227.53,196.12s-15.26,54.43-15.26,58.62c0,3.57,5,10.7,10.52,7.84s6.77-11.76,6.77-11.76Z"/><path class="cls-4" d="M268.35,419.08s-7.81,10.55-8.4,15,5.45,4.8,8.11,2.73,8.2-15.57,8.2-15.57Z"/><path class="cls-4" d="M225.73,393.68s-13.37,5.62-13.37,8.83,6.95,2.4,12,.53,13.1-5.08,13.1-5.08S229.74,392.88,225.73,393.68Z"/><path class="cls-6" d="M229.92,266.68l-.45,17.38S226,315.88,224.39,333s3.48,56.42,3.48,56.42l-2.41,2.4v2.41l12,3.74a52.93,52.93,0,0,0,1.07-7.49v-4l12.57-75.13s9.89,75.94,11.5,84.76,4,18.18,4,18.18l-.8,2.67,1.06,4.82,8.29,2.14a15.24,15.24,0,0,0,2.41-7.22c.53-4.82.8-16.05.8-16.05s-.53-39,1.34-65.5a309.07,309.07,0,0,0-.54-48.93l-1.33-17.64A65.7,65.7,0,0,1,229.92,266.68Z"/><polyline class="cls-19" points="251.13 311.33 249.79 301.44 244.45 295.83"/><path class="cls-19" d="M269.85,276.31s-3.75,6.95,6.41,10.16"/><line class="cls-19" x1="276.26" y1="289.68" x2="276.26" y2="413.2"/><path class="cls-19" d="M242.57,277.91l1.07,6.42s-2.67,4.81-1.6,6.95"/><path class="cls-4" d="M247.93,189.18s-20.05,5.87-20.4,6.94,2.39,70.56,2.39,70.56,5.35,8.2,20,9.45,28.52-6.42,28.52-6.42L288,206.44s-23-15.69-24.6-16.05S252.39,187.93,247.93,189.18Z"/><path class="cls-6" d="M246.55,202.54l4.76,11.68,8.14-9.22s-.61-5.84-6-6.45A6.3,6.3,0,0,0,246.55,202.54Z"/><path class="cls-4" d="M247.93,189.18l-8.45,13.36s4.92-1.23,7.22.77,4.92,4.15,4.92,4.15,4-3.23,7.22-2.15a23.36,23.36,0,0,1,6.14,3.38s2-13.21-.61-19.2S253.46,181.34,247.93,189.18Z"/><path class="cls-4" d="M250.08,190.71a109.83,109.83,0,0,0-.15,11.68c.3,4.92,1.84,6,3.68,2.77s6-13.06,6-15.83a48.6,48.6,0,0,1,.3-5.22S253.46,191,250.08,190.71Z"/><polygon class="cls-6" points="251.31 214.22 243.32 254.93 248.7 268.45 255.31 257.39 251.31 214.22"/><path class="cls-4" d="M267,251.35s-18-10.87-19.6-12.29-1.61-.36-2.86.35-5.88,6.24-6.77,8-2.32,4.28-.53,4.64,3.21-3,3.21-3.57,2.67-3.56,2.67-3.56-2.67,6.41-1.78,6.95,6.95,3,8.2,3,2.13-2.32,2.13-2.32,1.79,2.32,3.57,2.14a6.91,6.91,0,0,0,3-1.07l6.06,4.81Z"/><path class="cls-4" d="M267,251.35s-2.24-1.35-5.2-3.16l-2.64,6.19,5.17,4.1Z"/><path class="cls-7" d="M243.64,253.14s.54-5.71,2.86-8.92"/><path class="cls-7" d="M246.67,253.85s1.25-5,3.75-7.84"/><path class="cls-4" d="M280.54,209.65a26.47,26.47,0,0,0-8.38,14.43L283.39,256s-13.37-5.53-15-5.7-7.31,7.66-5.7,9.44,33,19.43,34.93,17.11-8-65.41-9.09-67.73-.35-3.56-4.1-4.1"/><path class="cls-4" d="M283.39,256s6.42,1.43,8.2,4.81"/><path class="cls-5" d="M211.63,229.71l14.32,32a1.44,1.44,0,0,0,.73.71l20.49,8.4A1.37,1.37,0,0,0,249,269.1l-11.47-31a4,4,0,0,0-2.38-2.37l-21.78-7.89A1.37,1.37,0,0,0,211.63,229.71Z"/><path class="cls-4" d="M217,246.77a1.31,1.31,0,0,0-1.57,1.4,1.77,1.77,0,0,0,.49,1.24c.79.56,6.72,1,6.49-.12C222.26,248.42,219.2,247.2,217,246.77Z"/><path class="cls-4" d="M215.15,244.61a1.56,1.56,0,0,0-1.87,1.66,2.08,2.08,0,0,0,.59,1.47c.93.66,8,1.19,7.7-.14C221.36,246.57,217.73,245.12,215.15,244.61Z"/><path class="cls-4" d="M214.59,241.43a1.7,1.7,0,0,0-2,1.81,2.28,2.28,0,0,0,.64,1.6c1,.72,8.66,1.3,8.37-.14C221.35,243.57,217.4,242,214.59,241.43Z"/><path class="cls-4" d="M213.44,238.4a1.7,1.7,0,0,0-2,1.81,2.19,2.19,0,0,0,.64,1.6c1,.72,8.66,1.3,8.37-.14C220.19,240.54,216.25,239,213.44,238.4Z"/><path class="cls-16" d="M240.33,167.6s1.2,12.24,3.88,17.91,3.58,8.35,6.27,8.35,7.76-3.88,10.14-7.46a58.2,58.2,0,0,0,3.29-5.37l.59-1.49s4.18-3,5.08-5.07-.9-3.58-4.18-1.79c0,0,1.19-9.25-1.2-14.92S243.62,157.46,240.33,167.6Z"/><path class="cls-4" d="M237.08,172.25l20.16,4.11s.14,3.13-2,4.12a6.09,6.09,0,0,1-6.39-1c-1.56-1.42-1.56-4.12-1.56-4.12s-1.28-1-1.42,0a3.85,3.85,0,0,1-3.94,3.26,4.74,4.74,0,0,1-4.24-3.16A12.08,12.08,0,0,1,237.08,172.25Z"/><line class="cls-7" x1="257.24" y1="176.36" x2="265.62" y2="171.96"/><line class="cls-7" x1="237.08" y1="172.25" x2="240.34" y2="170.97"/><polyline class="cls-4" points="246.02 176.22 244.6 181.48 246.31 181.9 246.73 186.02 249.43 185.31"/><path class="cls-15" d="M249,147.91s-11.94,9.25-13.13,14.92,6.56,8.06,11.64,7.16S260,164.32,260,164.32s-4.18,6.57-.9,6.86a15.68,15.68,0,0,0,4.48,0s-1.79,3.59-.3,3.59,2.09-2.09,2.09-2.09,4.18-9.85,3-18.8S256.15,142.24,249,147.91Z"/></g></svg>